<?xml version="1.0" encoding="utf-8"?>
<!-- Generator: Adobe Illustrator 21.1.0, SVG Export Plug-In . SVG Version: 6.00 Build 0)  -->
<svg version="1.1" id="Layer_1" xmlns="http://www.w3.org/2000/svg" xmlns:xlink="http://www.w3.org/1999/xlink" x="0px" y="0px"
	 viewBox="0 0 208 208" style="enable-background:new 0 0 208 208;" xml:space="preserve">
<style type="text/css">
	.st0{fill:none;stroke:#FFFFFF;stroke-width:7;stroke-linejoin:round;}
	.st1{fill:#2A5AA8;}
	.st2{fill:#FFFFFF;}
	.st3{fill:none;stroke:#2A5AA8;stroke-width:0.5;}
</style>
<g>
	<path class="st0" d="M89.4,199.3l12-56.1c-1,0.9-2,1.8-3.1,2.7c-10,8-23.8,12.4-38.6,12.4c-27.2,0-44.1-14.2-44.1-37
		c0-23.1,16.8-35.6,32.6-35.6c14.5,0,21.6,8.9,22.1,17.8l0.4,6.9h-6.9c-3.3,0-14.3,0.7-14.3,10.2c0,2.5,0.8,10.5,10.5,10.5
		c8.8,0,14.1-6.4,14.1-17.1c0-13.2-8.5-22.3-17.5-31.9c-9.3-9.9-18.9-20.2-18.9-35.3C37.8,25,58.2,8.5,85.3,8.5
		c21.9,0,35,10.4,35,27.8c0,14.1-8.8,24.4-21,24.4c-5.2,0-9.6-2-13.1-6l-5.1-5.9l6.7-4c2.6-1.6,4.8-5.9,4.8-9.7
		c0-4.5-2.5-5.4-6.6-5.4c-4.2,0-9.8,1-9.8,9.7c0,8.4,5.7,13.9,14.9,22c2.5,2.2,5,4.4,7.5,6.9c13.3-9.5,29.9-15.1,45.5-15.1
		c35.7,0,48.3,22.3,48.3,41.4c0,24.9-20.3,51.7-53.3,53.9l-10.8,50.7H89.4z M144,125.5c9.3-6.7,15.8-21.3,15.8-33.5
		c0-5.3-1.2-11.2-5.5-14.7L144,125.5z M112.1,87.2c0.3,0.7,0.6,1.4,0.8,2.1l0.9-4.1C113.2,85.9,112.7,86.5,112.1,87.2z"/>
	<path class="st1" d="M89.4,199.3l12-56.1c-1,0.9-2,1.8-3.1,2.7c-10,8-23.8,12.4-38.6,12.4c-27.2,0-44.1-14.2-44.1-37
		c0-23.1,16.8-35.6,32.6-35.6c14.5,0,21.6,8.9,22.1,17.8l0.4,6.9h-6.9c-3.3,0-14.3,0.7-14.3,10.2c0,2.5,0.8,10.5,10.5,10.5
		c8.8,0,14.1-6.4,14.1-17.1c0-13.2-8.5-22.3-17.5-31.9c-9.3-9.9-18.9-20.2-18.9-35.3C37.8,25,58.2,8.5,85.3,8.5
		c21.9,0,35,10.4,35,27.8c0,14.1-8.8,24.4-21,24.4c-5.2,0-9.6-2-13.1-6l-5.1-5.9l6.7-4c2.6-1.6,4.8-5.9,4.8-9.7
		c0-4.5-2.5-5.4-6.6-5.4c-4.2,0-9.8,1-9.8,9.7c0,8.4,5.7,13.9,14.9,22c2.5,2.2,5,4.4,7.5,6.9c13.3-9.5,29.9-15.1,45.5-15.1
		c35.7,0,48.3,22.3,48.3,41.4c0,24.9-20.3,51.7-53.3,53.9l-10.8,50.7H89.4z M144,125.5c9.3-6.7,15.8-21.3,15.8-33.5
		c0-5.3-1.2-11.2-5.5-14.7L144,125.5z M112.1,87.2c0.3,0.7,0.6,1.4,0.8,2.1l0.9-4.1C113.2,85.9,112.7,86.5,112.1,87.2z"/>
</g>
<g>
	<path class="st1" d="M119.9,42.2L99.8,23.1l-7.3-6.3l-19.3,5.7L63,45c0,0,19.1,35.6,24.1,30.6C92.1,70.7,116.8,61.5,119.9,42.2z"/>
	<rect x="105.9" y="68.5" class="st1" width="62.3" height="70.5"/>
	<rect x="45" y="97.7" class="st1" width="40.7" height="43.3"/>
</g>
<g>
	<path class="st2" d="M144.1,59.8c-16.5,0-34,7-46.2,17.3C86.1,63.7,69.7,56.2,69.7,39.5c0-10.6,6.6-16.1,16.3-16.1
		c9.8,0,13.1,5.7,13.1,11.9c0,5.9-3.2,12.4-8,15.3c2.3,2.7,5,3.7,8.2,3.7c8.9,0,14.5-7.6,14.5-17.9c0-19.5-20.2-21.3-28.6-21.3
		c-22.9,0-41,13.3-41,31.7c0,26.1,36.4,36.9,36.4,67.2c0,14.9-8.7,23.6-20.6,23.6c-11.4,0-17-8.2-17-17c0-12.2,11.2-16.7,20.8-16.7
		c-0.5-9.2-9.4-11.7-15.6-11.7c-12.4,0-26.1,9.9-26.1,29.1c0,21.6,17.4,30.5,37.6,30.5c25.7,0,49.8-14.5,49.8-44.3
		c0-8.4-1.9-15.2-4.9-20.8c7.4-12,21.1-18.7,39.6-18.7c15.6,0,22,11,22,24.1c0,19-13.1,42.2-31,43.6l12.6-59.2L121.6,80L97.4,192.8
		H123l10.8-50.5h0.9c31.9,0,51.3-25,51.3-47.5C185.9,76.4,173.2,59.8,144.1,59.8z"/>
	<path class="st3" d="M98.8,191.7l23.7-110.7l24-3.2l-12.6,59.1l1.4-0.1c15.1-1.2,32-20.6,32-44.7c0-15.8-8.6-25.2-23.1-25.2
		c-18.7,0-32.8,6.6-40.5,19.2l-0.3,0.5l0.3,0.5c3.2,6.1,4.8,12.7,4.8,20.3c0,29.9-24.5,43.3-48.8,43.3c-22.9,0-36.5-11-36.5-29.4
		c0-18.2,12.9-28,25-28c2.2,0,13.1,0.5,14.4,9.6c-15.2,0.5-20.6,9.7-20.6,17.7c0,8.7,5.7,18.1,18.1,18.1c13,0,21.7-9.9,21.7-24.7
		c0-16.2-9.9-26.8-19.5-37c-8.7-9.3-16.9-18.1-16.9-30.2c0-17.5,17.1-30.7,39.9-30.7c23.9,0,27.5,12.7,27.5,20.2
		c0,10.1-5.4,16.8-13.5,16.8c-2.6,0-4.7-0.8-6.5-2.5c4.3-3.2,7.4-9.5,7.4-15.4c0-3.9-1.4-13-14.2-13c-10.9,0-17.4,6.4-17.4,17.2
		c0,12.3,8.5,19.8,17.5,27.7c3.7,3.3,7.6,6.7,11.1,10.6l0.7,0.8l0.8-0.7c12.5-10.5,29.9-17,45.5-17c30.1,0,40.8,17.5,40.8,33.9
		c0,22.3-19.2,46.4-50.2,46.4h-1.8l-10.8,50.5H98.8z"/>
</g>
</svg>
